<svg width="48" height="48" viewBox="0 0 48 48" fill="none" xmlns="http://www.w3.org/2000/svg">
<g clip-path="url(#clip0_16_943)">
<path fill-rule="evenodd" clip-rule="evenodd" d="M24.525 0.00604817C21.0331 -0.069945 17.5667 0.617134 14.3678 2.01932C11.1689 3.4215 8.31459 5.50499 6.00415 8.12434C3.69371 10.7437 1.98283 13.8357 0.990938 17.1847C-0.000950515 20.5336 -0.249937 24.0586 0.261363 27.5137C0.772662 30.9688 2.03192 34.2707 3.95123 37.1888C5.87054 40.1069 8.40365 42.5709 11.3737 44.4088C14.3437 46.2467 17.6791 47.4143 21.147 47.8299C24.6149 48.2455 28.1318 47.8991 31.452 46.815C32.0193 46.6297 32.4897 46.2265 32.7598 45.6943C33.0298 45.1621 33.0774 44.5443 32.892 43.9771C32.7066 43.4098 32.3035 42.9393 31.7712 42.6693C31.239 42.3992 30.6213 42.3517 30.054 42.537C26.4459 43.7152 22.5724 43.8148 18.9086 42.8235C15.2447 41.8323 11.9498 39.7933 9.42791 36.9567C6.906 34.1201 5.26674 30.6092 4.71117 26.8545C4.1556 23.0998 4.70787 19.2646 6.30025 15.8193C7.89263 12.3739 10.4559 9.46812 13.6757 7.45833C16.8955 5.44854 20.6318 4.4221 24.4265 4.50489C28.2211 4.58767 31.9092 5.77609 35.0382 7.9244C38.1673 10.0727 40.6014 13.0875 42.042 16.599C42.2684 17.1512 42.7048 17.5909 43.2553 17.8213C43.5279 17.9353 43.8203 17.9946 44.1158 17.9957C44.4113 17.9968 44.7041 17.9396 44.9775 17.8275C45.2509 17.7155 45.4996 17.5506 45.7093 17.3424C45.919 17.1343 46.0856 16.8868 46.1997 16.6142C46.3138 16.3416 46.3731 16.0493 46.3741 15.7538C46.3752 15.4583 46.3181 15.1655 46.206 14.892C44.4331 10.5699 41.4372 6.85918 37.586 4.21495C33.7348 1.57071 29.1955 0.107945 24.525 0.00604817ZM26.25 11.25C26.25 10.6533 26.0129 10.081 25.591 9.65906C25.169 9.2371 24.5967 9.00005 24 9.00005C23.4033 9.00005 22.831 9.2371 22.409 9.65906C21.987 10.081 21.75 10.6533 21.75 11.25V23.07L15.648 29.169C15.4269 29.375 15.2496 29.6234 15.1266 29.8994C15.0037 30.1754 14.9375 30.4734 14.9322 30.7755C14.9269 31.0776 14.9825 31.3777 15.0956 31.6578C15.2088 31.938 15.3772 32.1925 15.5909 32.4062C15.8045 32.6198 16.059 32.7883 16.3392 32.9014C16.6194 33.0146 16.9194 33.0702 17.2216 33.0648C17.5237 33.0595 17.8216 32.9934 18.0976 32.8704C18.3736 32.7474 18.622 32.5701 18.828 32.349L25.59 25.59L26.25 24.93V11.25ZM45 45C45 45.7957 44.6839 46.5588 44.1213 47.1214C43.5587 47.684 42.7956 48 42 48C41.2043 48 40.4413 47.684 39.8787 47.1214C39.3161 46.5588 39 45.7957 39 45C39 44.2044 39.3161 43.4413 39.8787 42.8787C40.4413 42.3161 41.2043 42 42 42C42.7956 42 43.5587 42.3161 44.1213 42.8787C44.6839 43.4413 45 44.2044 45 45ZM44.25 26.25C44.25 25.6533 44.0129 25.081 43.591 24.6591C43.169 24.2371 42.5967 24 42 24C41.4033 24 40.831 24.2371 40.409 24.6591C39.987 25.081 39.75 25.6533 39.75 26.25V36.75C39.75 37.3468 39.987 37.9191 40.409 38.341C40.831 38.763 41.4033 39 42 39C42.5967 39 43.169 38.763 43.591 38.341C44.0129 37.9191 44.25 37.3468 44.25 36.75V26.25Z" fill="black"/>
</g>
<defs>
<clipPath id="clip0_16_943">
<rect width="48" height="48" fill="white"/>
</clipPath>
</defs>
</svg>
