<svg width="48" height="48" viewBox="0 0 48 48" fill="none" xmlns="http://www.w3.org/2000/svg">
<path d="M42 31.5H6C5.20459 31.4992 4.44199 31.1829 3.87956 30.6204C3.31712 30.058 3.00079 29.2954 3 28.5V19.5C3.00079 18.7046 3.31712 17.942 3.87956 17.3796C4.44199 16.8171 5.20459 16.5008 6 16.5H42C42.7954 16.5008 43.558 16.8171 44.1204 17.3796C44.6829 17.942 44.9992 18.7046 45 19.5V28.5C44.9992 29.2954 44.6829 30.058 44.1204 30.6204C43.558 31.1829 42.7954 31.4992 42 31.5ZM6 19.5V28.5H42V19.5H6Z" fill="black"/>
<path d="M9 22.5H30V25.5H9V22.5Z" fill="black"/>
</svg>
