<svg width="24" height="24" viewBox="0 0 24 24" fill="none" xmlns="http://www.w3.org/2000/svg">
<path d="M3.00002 19H21C21.1823 18.9994 21.3609 18.9491 21.5167 18.8546C21.6725 18.7601 21.7996 18.6248 21.8842 18.4634C21.9689 18.302 22.0079 18.1206 21.9971 17.9387C21.9863 17.7568 21.9262 17.5812 21.823 17.431L12.823 4.43098C12.45 3.89198 11.552 3.89198 11.178 4.43098L2.17802 17.431C2.07385 17.5809 2.01276 17.7566 2.00139 17.9388C1.99002 18.121 2.02881 18.3029 2.11354 18.4646C2.19827 18.6263 2.3257 18.7617 2.48199 18.8561C2.63828 18.9505 2.81744 19.0003 3.00002 19Z" fill="black"/>
</svg>
